<?xml version="1.0" standalone="no"?><!DOCTYPE svg PUBLIC "-//W3C//DTD SVG 1.1//EN" "http://www.w3.org/Graphics/SVG/1.1/DTD/svg11.dtd"><svg t="1540115770314" class="icon" style="" viewBox="0 0 1024 1024" version="1.1" xmlns="http://www.w3.org/2000/svg" p-id="3205" xmlns:xlink="http://www.w3.org/1999/xlink" width="64" height="64"><defs><style type="text/css"></style></defs><path d="M512 1024A512 512 0 1 0 0 512a512 512 0 0 0 512 512z m0-85.333333a426.666667 426.666667 0 1 1 426.666667-426.666667 426.666667 426.666667 0 0 1-426.666667 426.666667z m-35.413333-501.76V229.973333a35.413333 35.413333 0 1 1 70.4 0v207.36a82.346667 82.346667 0 0 1 42.666666 101.973334L725.333333 674.986667A35.413333 35.413333 0 0 1 674.986667 725.333333l-135.253334-135.253333a82.346667 82.346667 0 0 1-62.72-151.893333z" p-id="3206"></path></svg>